<svg xmlns="http://www.w3.org/2000/svg" viewBox="0 0 100 100" width="600" height="600" role="img" aria-label="Logic &amp; Mathematics">
  <rect width="100" height="100" fill="#faf8f3"/>
  <g fill="none" stroke-linecap="round">
    <path d="M 86.89 42.96 A 6 6 0 0 0 82.54 48.09" stroke="#1a1a17" stroke-opacity="0.420" stroke-width="2.00"/>
    <path d="M 97.59 39.13 A 13.23 13.23 0 0 1 96.65 59.16" stroke="#1a1a17" stroke-opacity="0.395" stroke-width="1.83"/>
    <path d="M 103.14 34.46 A 20.45 20.45 0 0 1 91.43 68.98" stroke="#1a1a17" stroke-opacity="0.370" stroke-width="1.66"/>
    <path d="M 116 45.61 A 27.68 27.68 0 0 1 72.96 71.65" stroke="#1a1a17" stroke-opacity="0.345" stroke-width="1.49"/>
    <path d="M 122.34 57.27 A 34.9 34.9 0 0 1 53.65 46.81" stroke="#1a1a17" stroke-opacity="0.320" stroke-width="1.31"/>
    <path d="M 130.39 53.23 A 42.13 42.13 0 0 1 47.43 58.13" stroke="#1a1a17" stroke-opacity="0.295" stroke-width="1.14"/>
    <path d="M 123 84.04 A 49.36 49.36 0 1 0 43.2 29.14" stroke="#1a1a17" stroke-opacity="0.270" stroke-width="0.97"/>
    <path d="M -2 50.31 L 32.48 38.76 L 58.65 44.85 L 102 16.37" stroke="#1a1a17" stroke-opacity="0.5" stroke-width="0.70"/>
  </g>
  <circle cx="58.65" cy="44.85" r="2.35" fill="#b45309"/>
</svg>
