<svg xmlns="http://www.w3.org/2000/svg" viewBox="0 0 100 100" width="600" height="600" role="img" aria-label="Systems &amp; Incentives">
  <rect width="100" height="100" fill="#faf8f3"/>
  <g fill="none" stroke-linecap="round">
    <path d="M 47.41 1.2 A 6 6 0 0 1 54.65 2.17" stroke="#1a1a17" stroke-opacity="0.420" stroke-width="2.00"/>
    <path d="M 46.67 -5.14 A 12.13 12.13 0 0 1 62.41 4.67" stroke="#1a1a17" stroke-opacity="0.395" stroke-width="1.85"/>
    <path d="M 57.63 -10.35 A 18.25 18.25 0 0 1 66.08 15.73" stroke="#1a1a17" stroke-opacity="0.370" stroke-width="1.70"/>
    <path d="M 66.98 -11.48 A 24.38 24.38 0 0 1 59.31 29.09" stroke="#1a1a17" stroke-opacity="0.345" stroke-width="1.55"/>
    <path d="M 69.99 -16.97 A 30.5 30.5 0 0 1 54.78 36.58" stroke="#1a1a17" stroke-opacity="0.320" stroke-width="1.40"/>
    <path d="M 86.98 4.45 A 36.63 36.63 0 0 1 21.35 28.71" stroke="#1a1a17" stroke-opacity="0.295" stroke-width="1.25"/>
    <path d="M 83.19 33.84 A 42.76 42.76 0 1 1 20.16 -23.83" stroke="#1a1a17" stroke-opacity="0.270" stroke-width="1.10"/>
    <path d="M 80.91 44.59 A 48.88 48.88 0 1 1 34.77 -39.91" stroke="#1a1a17" stroke-opacity="0.245" stroke-width="0.95"/>
    <path d="M -2 54.34 L 35.96 34.61 L 68.1 57.02 L 102 24.28" stroke="#1a1a17" stroke-opacity="0.5" stroke-width="0.70"/>
  </g>
  <circle cx="68.1" cy="57.02" r="3.16" fill="#b45309"/>
</svg>
