<svg xmlns="http://www.w3.org/2000/svg" viewBox="0 0 100 100" width="600" height="600" role="img" aria-label="Buffett &amp; Munger Mental Models">
  <rect width="100" height="100" fill="#faf8f3"/>
  <g fill="none" stroke-linecap="round">
    <path d="M 45.22 4.12 A 6 6 0 0 1 52.45 0.7" stroke="#1a1a17" stroke-opacity="0.420" stroke-width="2.00"/>
    <path d="M 47.13 -5.15 A 12.15 12.15 0 0 1 61.56 0.91" stroke="#1a1a17" stroke-opacity="0.395" stroke-width="1.85"/>
    <path d="M 44.78 -10.86 A 18.31 18.31 0 0 1 68.67 10.21" stroke="#1a1a17" stroke-opacity="0.370" stroke-width="1.70"/>
    <path d="M 61.34 -15.6 A 24.46 24.46 0 0 1 66.77 24.94" stroke="#1a1a17" stroke-opacity="0.345" stroke-width="1.55"/>
    <path d="M 76.95 -9.37 A 30.61 30.61 0 0 0 20.14 6.8" stroke="#1a1a17" stroke-opacity="0.320" stroke-width="1.40"/>
    <path d="M 86.52 -2.05 A 36.77 36.77 0 0 1 16.67 20.25" stroke="#1a1a17" stroke-opacity="0.295" stroke-width="1.25"/>
    <path d="M 93.67 6.31 A 42.92 42.92 0 0 1 9.11 16.85" stroke="#1a1a17" stroke-opacity="0.270" stroke-width="1.10"/>
    <path d="M 94.8 28.1 A 49.08 49.08 0 1 1 14.68 -26.83" stroke="#1a1a17" stroke-opacity="0.245" stroke-width="0.95"/>
    <path d="M -2 46.83 L 29.44 30.55 L 63.73 46.7 L 102 24.33" stroke="#1a1a17" stroke-opacity="0.5" stroke-width="0.70"/>
  </g>
  <circle cx="29.44" cy="30.55" r="2.31" fill="#b45309"/>
</svg>
