<svg xmlns="http://www.w3.org/2000/svg" viewBox="0 0 100 100" width="600" height="600" role="img" aria-label="History &amp; Civilizational Arcs">
  <rect width="100" height="100" fill="#faf8f3"/>
  <g fill="none" stroke-linecap="round">
    <path d="M 18.44 9.35 A 6 6 0 0 1 11.41 10.13" stroke="#1a1a17" stroke-opacity="0.420" stroke-width="2.00"/>
    <path d="M 18.79 25.46 A 21.01 21.01 0 0 1 -6.5 2.65" stroke="#1a1a17" stroke-opacity="0.395" stroke-width="1.80"/>
    <path d="M 11.54 40.83 A 36.02 36.02 0 0 1 -8.33 -23.03" stroke="#1a1a17" stroke-opacity="0.370" stroke-width="1.60"/>
    <path d="M 13.41 55.94 A 51.03 51.03 0 0 1 -12.82 -38.25" stroke="#1a1a17" stroke-opacity="0.345" stroke-width="1.40"/>
    <path d="M -27.09 56.3 A 66.03 66.03 0 0 1 44.74 -53.72" stroke="#1a1a17" stroke-opacity="0.320" stroke-width="1.20"/>
    <path d="M -66.5 9.91 A 81.04 81.04 0 1 1 95.39 2.23" stroke="#1a1a17" stroke-opacity="0.295" stroke-width="1.00"/>
    <path d="M 81.13 -2 L 95.18 31.71 L 66.77 50.64 L 87.13 62" stroke="#1a1a17" stroke-opacity="0.5" stroke-width="0.70"/>
  </g>
  <circle cx="66.77" cy="50.64" r="2.29" fill="#b45309"/>
</svg>
