<svg viewBox="0 0 100 100" xmlns="http://www.w3.org/2000/svg" role="img" aria-label="Unknown">
  <path
    d="M 65.22 10.85 L 68.58 13.17 L 71.65 15.75 L 74.41 18.57 L 76.84 21.58 L 78.93 24.75 L 80.67 28.06 L 82.06 31.45 L 83.10 34.90 L 83.79 38.37 L 84.13 41.83 L 84.14 45.24 L 83.83 48.58 L 83.21 51.81 L 82.29 54.91 L 81.11 57.86 L 79.67 60.62 L 78.00 63.19 L 76.12 65.55 L 74.07 67.67 L 71.86 69.55 L 69.52 71.19 L 67.08 72.56 L 64.56 73.67 L 62.00 74.52 L 59.41 75.11 L 56.82 75.43 L 54.26 75.51 L 51.75 75.34 L 49.31 74.94 L 46.97 74.32 L 44.74 73.49 L 42.63 72.47 L 40.67 71.27 L 38.87 69.91 L 37.23 68.41 L 35.78 66.79 L 34.51 65.07 L 33.43 63.26 L 32.54 61.40 L 31.85 59.49 L 31.36 57.56 L 31.06 55.63 L 30.95 53.71 L 31.03 51.83 L 31.28 49.99 L 31.70 48.22 L 32.28 46.53 L 33.00 44.93 L 33.86 43.43 L 34.84 42.05 L 35.94 40.80 L 37.12 39.67 L 38.39 38.68 L 39.72 37.84 L 41.10 37.14 L 42.51 36.58 L 43.95 36.17 L 45.40 35.91 L 46.83 35.79 L 48.25 35.81 L 49.63 35.96 L 50.97 36.24 L 52.25 36.64 L 53.46 37.15 L 54.60 37.76 L 55.65 38.47 L 56.62 39.27 L 57.49 40.13 L 58.25 41.06 L 58.91 42.04 L 59.47 43.06 L 59.91 44.11 L 60.25 45.18 L 60.47 46.26 L 60.59 47.34 L 60.61 48.40 L 60.52 49.44 L 60.34 50.45 L 60.07 51.42 L 59.71 52.34 L 59.27 53.20 L 58.76 54.01 L 58.18 54.75 L 57.55 55.42 L 56.87 56.01 L 56.15 56.53 L 55.39 56.96 L 54.61 57.32 L 53.82 57.59 L 53.02 57.78 L 52.21 57.89 L 51.42 57.92 L 50.63 57.88 L 49.87 57.77 L 49.14 57.58 L 48.44 57.33 L 47.79 57.02 L 47.17 56.65 L 46.60 56.23 L 46.09 55.77 L 45.63 55.27 L 45.23 54.74 L 44.89 54.19 L 44.61 53.61 L 44.39 53.02 L 44.23 52.42 L 44.13 51.82 L 44.08 51.22 L 44.10 50.63 L 44.17 50.06 L 44.30 49.51 L 44.47 48.98 L 44.69 48.48 L 44.95 48.01 L 45.26 47.58 L 45.59 47.18 L 45.96 46.83 L 46.35 46.52 L 46.76 46.25 L 47.18 46.03 L 47.62 45.85 L 48.07 45.72 L 48.52 45.63 L 48.96 45.59 L 49.40 45.59 L 49.84 45.63 L 50.25 45.71 L 50.65 45.83 L 51.03 45.99 L 51.39 46.18 L 51.72 46.39 L 52.02 46.64 L 52.30 46.90 L 52.54 47.19 L 52.75 47.49 L 52.92 47.81 L 53.06 48.13 L 53.17 48.47 L 53.25 48.80 L 53.29 49.13"
    fill="none"
    stroke="#1a1a17"
    stroke-width="5.5"
    stroke-linecap="round"
    stroke-linejoin="round"
  />
  <circle cx="53.29" cy="49.13" r="4.2" fill="#b45309" />
</svg>
